<?xml version="1.0" encoding="UTF-8"?><svg width="55px" height="55px" stroke-width="1" viewBox="0 0 24 24" fill="none" xmlns="http://www.w3.org/2000/svg" color="#000000"><path d="M13.992 17h3m3 0h-3m0 0v-3m0 3v3" stroke="#000000" stroke-width="1" stroke-linecap="round" stroke-linejoin="round"></path><path d="M4 9.4V4.6a.6.6 0 01.6-.6h4.8a.6.6 0 01.6.6v4.8a.6.6 0 01-.6.6H4.6a.6.6 0 01-.6-.6zM4 19.4v-4.8a.6.6 0 01.6-.6h4.8a.6.6 0 01.6.6v4.8a.6.6 0 01-.6.6H4.6a.6.6 0 01-.6-.6zM14 9.4V4.6a.6.6 0 01.6-.6h4.8a.6.6 0 01.6.6v4.8a.6.6 0 01-.6.6h-4.8a.6.6 0 01-.6-.6z" stroke="#000000" stroke-width="1"></path></svg>