<svg width="48" height="48" viewBox="0 0 48 48" xmlns="http://www.w3.org/2000/svg" fill="#231f20">
  <g id="IM005A">
    <path id="Symbol" d="M24 44C35.0457 44 44 35.0457 44 24C44 12.9543 35.0457 4 24 4C12.9543 4 4 12.9543 4 24C4 35.0457 12.9543 44 24 44ZM24 43C13.5066 43 5 34.4934 5 24C5 13.5066 13.5066 5 24 5C34.4934 5 43 13.5066 43 24C43 34.4934 34.4934 43 24 43Z" />
    <g id="Annotations">
      <circle id="annotation-connector-1-90" cx="43.5" cy="24" r="0.5" />
      <circle id="annotation-connector-2-180" cx="24" cy="43.5" r="0.5" />
      <circle id="annotation-connector-3-270" cx="4.5" cy="24" r="0.5" />
      <circle id="annotation-connector-4-0" cx="24" cy="4.5" r="0.5" />
    </g>
  </g>
</svg>