<svg width="168" height="96" viewBox="0 0 168 96" xmlns="http://www.w3.org/2000/svg" fill="#231f20">
  <g id="ND0005_Option1">
    <g id="Symbol">
      <path d="M14 16.6501L14 35.5H13L13 15.5H13.9937L13.9961 15.4958L43.8696 32.5856L45.0548 30.5139L47 33.8524V15.5H48V25L61 25V15.5L80 25L99 15.5V25H117V15.5L136 25L155 15.5V35.5L136 26L117 35.5V26H109V43.5H118L108.5 62.5L118 81.5H98L107.5 62.5L98 43.5H108V26H99V35.5L80 26L61 35.5V26L48 26V35.5H47.96L47.9614 35.5024L42.1879 35.5253L43.3731 33.4536L14 16.6501Z" />
      <path d="M90.5 40.5V85.5H125.5V40.5H160V10.5H8V40.5H90.5ZM9 39.5V11.5H159V39.5H124.5V84.5H91.5V39.5H9Z" />
    </g>
    <g id="Annotations">
      <circle id="annotation-connector-2-270" cx="4.54047" cy="12" r="0.5" />
      <circle id="annotation-connector-1-90" cx="44.2119" cy="12.002" r="0.5" />
    </g>
  </g>
</svg>