<svg width="72" height="24" viewBox="0 0 72 24" xmlns="http://www.w3.org/2000/svg" fill="#231f20">
  <g id="ND0001">
    <g id="Symbol">
      <path d="M68 2.99997L63 2.99997V21H68V22L62 22V12.1508C60.7127 10.2105 59.763 8.78067 58.975 7.82557C58.5737 7.33921 58.2342 7.00094 57.9342 6.78617C57.6384 6.57442 57.4071 6.50101 57.2105 6.50004C56.8046 6.49804 56.2774 6.8082 55.4434 7.81219C54.6347 8.78558 53.6547 10.2596 52.3167 12.2764L51.4834 11.7235C52.8078 9.72736 53.8227 8.19814 54.6741 7.17319C55.5002 6.17883 56.2982 5.49553 57.2154 5.50005C57.6804 5.50234 58.11 5.68219 58.5163 5.97308C58.9184 6.26096 59.3219 6.67472 59.7464 7.18916C60.3848 7.96293 61.1152 9.02093 62 10.3448V2L68 1.99997V2.99997Z" />
      <path d="M9 21V3.00003L4 3.00003V2.00003L10 2L10 10.3458C10.8935 9.01085 11.6305 7.94795 12.2741 7.17319C13.1002 6.17883 13.8982 5.49553 14.8154 5.50005C15.2804 5.50234 15.71 5.68219 16.1163 5.97308C16.5184 6.26096 16.9219 6.67472 17.3464 7.18916C18.1736 8.19176 19.1553 9.67156 20.427 11.5885L20.5166 11.7236L19.6833 12.2764L19.6271 12.1917C18.3261 10.2307 17.3685 8.78733 16.575 7.82557C16.1737 7.33921 15.8341 7.00094 15.5342 6.78617C15.2384 6.57442 15.007 6.50101 14.8105 6.50004C14.4046 6.49804 13.8774 6.8082 13.0433 7.81219C12.2516 8.76525 11.2956 10.1982 10 12.1508L10 22H9L9 21Z" />
      <path d="M9 21L9 22L4 22V21H9Z" />
      <path d="M27.1566 16.1879C27.9652 15.2145 28.9453 13.7405 30.2833 11.7237L31.1166 12.2765C29.7922 14.2727 28.7773 15.8019 27.9258 16.8269C27.0998 17.8212 26.3017 18.5045 25.3845 18.5C24.9196 18.4977 24.4899 18.3179 24.0836 18.027C23.6816 17.7391 23.278 17.3253 22.8536 16.8109C22.0264 15.8083 21.0447 14.3285 19.7729 12.4115L19.6833 12.2764L20.5166 11.7236L20.5728 11.8084C21.8739 13.7695 22.8314 15.2127 23.6249 16.1745C24.0262 16.6608 24.3658 16.9991 24.6658 17.2139C24.9615 17.4256 25.1929 17.4991 25.3895 17.5C25.7954 17.502 26.3226 17.1919 27.1566 16.1879Z" />
      <path d="M31.1166 12.2765C32.4547 10.2597 33.4347 8.78558 34.2433 7.81219C35.0773 6.8082 35.6045 6.49804 36.0104 6.50004C36.207 6.50101 36.4384 6.57442 36.7341 6.78617C37.0341 7.00094 37.3737 7.33921 37.775 7.82557C38.5685 8.78735 39.526 10.2306 40.827 12.1916L40.8833 12.2764L41.7166 11.7236L41.627 11.5885C40.3552 9.67156 39.3735 8.19176 38.5463 7.18916C38.1219 6.67472 37.7183 6.26096 37.3163 5.97308C36.91 5.68219 36.4803 5.50234 36.0154 5.50005C35.0982 5.49553 34.3001 6.17883 33.4741 7.17319C32.6226 8.19814 31.6077 9.72748 30.2833 11.7237L31.1166 12.2765Z" />
      <path d="M48.3567 16.1879C49.1653 15.2145 50.1453 13.7403 51.4834 11.7235L52.3167 12.2764C50.9923 14.2726 49.9774 15.8019 49.1259 16.8269C48.2999 17.8212 47.5018 18.5045 46.5846 18.5C46.1196 18.4977 45.69 18.3179 45.2837 18.027C44.8816 17.7391 44.4781 17.3253 44.0537 16.8109C43.2265 15.8083 42.2447 14.3285 40.973 12.4115L40.8833 12.2764L41.7166 11.7236L41.7729 11.8084C43.074 13.7694 44.0315 15.2127 44.825 16.1745C45.2263 16.6608 45.5659 16.9991 45.8659 17.2139C46.1616 17.4256 46.393 17.4991 46.5896 17.5C46.9954 17.502 47.5227 17.1919 48.3567 16.1879Z" />
    </g>
    <g id="Annotations">
      <circle id="annotation-connector-2-270" cx="9.5" cy="12" r="0.5" />
      <circle id="annotation-connector-1-90" cx="62.5" cy="12.002" r="0.5" />
    </g>
  </g>
</svg>