<svg width="24" height="96" viewBox="0 0 24 96" xmlns="http://www.w3.org/2000/svg" fill="#231f20">
  <g id="ND0015" clip-path="url(#clip0_439_51872)">
    <g id="Symbol">
      <path d="M11.75 10V14H12.25V10H11.75Z" />
      <path d="M11.75 18L11.75 22H12.25V18H11.75Z" />
      <path d="M11.75 26V30H12.25V26H11.75Z" />
      <path d="M11.75 34V38H12.25L12.25 34H11.75Z" />
      <path d="M11.75 42L11.75 46H12.25V42H11.75Z" />
      <path d="M11.75 50L11.75 54H12.25V50H11.75Z" />
      <path d="M11.75 58V62H12.25L12.25 58H11.75Z" />
      <path d="M11.75 66V70H12.25V66H11.75Z" />
      <path d="M11.75 74L11.75 78H12.25V74H11.75Z" />
      <path d="M11.75 82L11.75 86H12.25V82H11.75Z" />
      <path d="M20 4V92H4V4H20ZM12.25 5V6H11.75V5H5V91H11.75V90H12.25V91H19V5H12.25Z" />
    </g>
    <g id="Annotations">
      <circle id="annotation-connector-2-270" cx="2" cy="12" r="0.5" />
    </g>
  </g>
  <defs>
    <clipPath id="clip0_439_51872">
      <rect width="24" height="96" fill="white" />
    </clipPath>
  </defs>
</svg>