<svg width="48" height="72" viewBox="0 0 48 72" xmlns="http://www.w3.org/2000/svg" fill="#231f20">
  <g id="ND0020">
    <g id="Symbol">
      <path d="M42.9844 29.5529L42.9928 29.5613L26.8283 45.7257L43 37.6399V57.6399L24 48.1399L5 57.6399V37.6399L23.5 46.8899V27.8636H24.5V46.6398L42 29.1398V15.3601L24.5 15.3601V20.3601H24H23.5V14.3601L43 14.3601V29.5529H42.9844ZM25.2361 47.6399L42 56.0218V39.2579L25.2361 47.6399ZM22.7639 47.6399L6 39.2579V56.0219L22.7639 47.6399Z" />
      <path d="M32.9677 27.8635C32.9677 27.8634 32.9677 27.8635 32.9677 27.8635L33.9745 27.8636C33.9914 27.6973 34 27.5294 34 27.3601C34 23.4941 29.5228 20.3601 24 20.3601C18.4772 20.3601 14 23.4941 14 27.3601C14 27.5294 14.0086 27.6973 14.0255 27.8636H15.0323C15.0321 27.8624 15.032 27.8613 15.0318 27.8602L32.9677 27.8635ZM32.9686 26.8635L15.0318 26.8602C15.2025 25.5217 16.0564 24.2418 17.5024 23.2296C19.1245 22.0941 21.4186 21.3601 24 21.3601C26.5814 21.3601 28.8755 22.0941 30.4976 23.2296C31.9448 24.2426 32.7989 25.5238 32.9686 26.8635Z" />
    </g>
    <g id="Annotations">
      <circle id="annotation-connector-2-270" cx="5.5" cy="47.5" r="0.5" />
      <circle id="annotation-connector-1-90" cx="42.5" cy="47.5" r="0.5" />
    </g>
  </g>
</svg>