<svg width="48" height="48" viewBox="0 0 48 48" xmlns="http://www.w3.org/2000/svg" fill="#231f20">
  <g id="ND0023">
    <path id="Symbol" d="M43.9939 23.5H44V24.5H43.9939C43.7285 35.3147 34.8785 44 24 44C13.1215 44 4.27149 35.3147 4.00613 24.5H4V23.5H4.00613C4.27149 12.6853 13.1215 4 24 4C34.8785 4 43.7285 12.6853 43.9939 23.5ZM42.9935 24.5H5.00645C5.27156 34.7623 13.6738 43 24 43C34.3262 43 42.7284 34.7623 42.9935 24.5ZM42.9935 23.5C42.7284 13.2377 34.3262 5 24 5C13.6738 5 5.27156 13.2377 5.00645 23.5H42.9935Z" />
    <g id="Annotations">
      <circle id="annotation-connector-1-90" cx="43.5" cy="24" r="0.5" />
      <circle id="annotation-connector-2-180" cx="24" cy="43.5" r="0.5" />
      <circle id="annotation-connector-3-270" cx="4.5" cy="24" r="0.5" />
      <circle id="annotation-connector-4-0" cx="24" cy="4.5" r="0.5" />
    </g>
  </g>
</svg>