<svg width="48" height="48" viewBox="0 0 48 48" xmlns="http://www.w3.org/2000/svg" fill="#231f20">
  <g id="ND0025">
    <g id="Symbol">
      <path d="M10 24.25H14V23.75H10V24.25Z" />
      <path d="M18 24.25H22V23.75H18V24.25Z" />
      <path d="M26 24.25H30V23.75H26V24.25Z" />
      <path d="M34 24.25H38V23.75H34V24.25Z" />
      <path d="M43.9985 24.25C43.8646 35.1805 34.9622 44 24 44C13.0378 44 4.13542 35.1805 4.00153 24.25H4V23.75H4.00153C4.13542 12.8195 13.0378 4 24 4C34.9622 4 43.8646 12.8195 43.9985 23.75H44V24.25H43.9985ZM42.9984 24.25H42V23.75H42.9984C42.8646 13.3718 34.41 5 24 5C13.59 5 5.13544 13.3718 5.00161 23.75H6V24.25H5.00161C5.13544 34.6282 13.59 43 24 43C34.41 43 42.8646 34.6282 42.9984 24.25Z" />
    </g>
    <g id="Annotations">
      <circle id="annotation-connector-1-90" cx="43.5" cy="24" r="0.5" />
      <circle id="annotation-connector-2-180" cx="24" cy="43.5" r="0.5" />
      <circle id="annotation-connector-3-270" cx="4.5" cy="24" r="0.5" />
      <circle id="annotation-connector-4-0" cx="24" cy="4.5" r="0.5" />
    </g>
  </g>
</svg>