<svg width="48" height="48" viewBox="0 0 48 48" xmlns="http://www.w3.org/2000/svg" fill="#231f20">
  <g id="ND0011">
    <path id="Symbol" d="M19.75 24L38.75 14.5V34.5L20.0833 25.1667L29.25 43.5H9.25L18.75 24.5L18.75 15.9498L15.361 19.3389L15.0074 18.9853L18.75 15.2427V12.9499L15.361 16.3389L15.0074 15.9853L18.75 12.2428V4.5H19.75V11.2428L23.4927 7.50006L23.8463 7.85361L19.75 11.9499V14.2427L23.4927 10.5L23.8463 10.8536L19.75 14.9498L19.75 24ZM19.25 25.7361L10.868 42.5H27.632L19.25 25.7361ZM37.75 32.882V16.118L20.9861 24.5L37.75 32.882Z" />
    <g id="Annotations">
      <circle id="annotation-connector-2-180" cx="19.2501" cy="43" r="0.5" />
      <circle id="annotation-connector-1-90" cx="38.25" cy="24.5" r="0.5" />
    </g>
  </g>
</svg>