<svg width="48" height="24" viewBox="0 0 48 24" xmlns="http://www.w3.org/2000/svg" fill="#231f20">
  <g id="ND0014">
    <path id="Symbol" d="M21.5 3.05658L19 7.05658L16.5 3.05658L11.2229 11.5H1.5V12.5H16.7771L19 8.94338L26.5 20.9434L29 16.9434L31.5 20.9434L36.7771 12.5H46.5V11.5H31.2229L29 15.0566L21.5 3.05658ZM29.5896 16L31.7771 12.5H35.5979L31.5 19.0566L29.5896 16ZM28.4104 16L26.5 19.0566L19.5896 7.99998L21.5 4.94338L28.4104 16ZM18.4104 7.99998L16.2229 11.5H12.4021L16.5 4.94338L18.4104 7.99998Z" />
    <g id="Annotations">
      <circle id="annotation-connector-1-90" cx="46" cy="12" r="0.5" />
      <circle id="annotation-connector-2-270" cx="2" cy="12" r="0.5" />
    </g>
  </g>
</svg>