<svg width="48" height="48" viewBox="0 0 48 48" xmlns="http://www.w3.org/2000/svg" fill="#231f20">
  <g id="ND0016">
    <g id="Symbol">
      <path d="M24 27C25.6569 27 27 25.6569 27 24C27 22.3431 25.6569 21 24 21C22.3431 21 21 22.3431 21 24C21 25.6569 22.3431 27 24 27Z" />
      <path d="M4 24C4 32.4795 9.27694 39.7264 16.726 42.6361C18.9804 43.5167 21.4338 44 24 44C27.797 44 31.3468 42.9419 34.3707 41.1045C34.4381 41.0636 34.5053 41.0222 34.5722 40.9805C40.2332 37.4484 44 31.1641 44 24C44 15.686 38.927 8.55692 31.7076 5.5392C31.6693 5.52318 31.631 5.50729 31.5926 5.49152C29.2515 4.53011 26.6876 4 24 4C12.9543 4 4 12.9543 4 24ZM21.6395 27.2295L12.7214 39.2918C8.04549 35.8373 5.01033 30.2894 5.00003 24.032L20.0002 24.0357L20 24C20 22.3323 21.0206 20.903 22.4712 20.3025L16.7865 6.4172C19.0107 5.50372 21.4465 5 24 5C26.5535 5 28.9894 5.50373 31.2136 6.41723L25.5288 20.3025C26.9795 20.903 28 22.3323 28 24L27.9999 24.0357L43 24.032C42.9888 30.8249 39.4128 36.7819 34.0427 40.132L26.1013 27.4043C25.4906 27.782 24.7708 28 24 28C23.1172 28 22.3011 27.714 21.6395 27.2295Z" />
    </g>
    <g id="Annotations">
      <circle id="annotation-connector-1-90" cx="43.5" cy="24" r="0.5" />
      <circle id="annotation-connector-2-180" cx="24" cy="43.5" r="0.5" />
      <circle id="annotation-connector-3-270" cx="4.5" cy="24" r="0.5" />
      <circle id="annotation-connector-4-0" cx="24" cy="4.5" r="0.5" />
    </g>
  </g>
</svg>