<svg width="168" height="96" viewBox="0 0 168 96" xmlns="http://www.w3.org/2000/svg" fill="#231f20">
  <g id="ND0005">
    <g id="Symbol">
      <path d="M14 16.6501L43.3731 33.4536L42.1879 35.5253L47.9614 35.5024L47.96 35.5H48V26L61 26V35.5L80 26L99 35.5V26H108V43.5H98L107.5 62.5L98 81.5H118L108.5 62.5L118 43.5H109V26H117V35.5L136 26L155 35.5V15.5L136 25L117 15.5V25H99V15.5L80 25L61 15.5V25L48 25V15.5H47V33.8524L45.0548 30.5139L43.8696 32.5856L13.9961 15.4958L13.9937 15.5H13L13 35.5H14L14 16.6501ZM62 17.118L78.7639 25.5L62 33.882V17.118ZM81.2361 25.5L98 17.118V33.882L81.2361 25.5ZM118 17.118L134.764 25.5L118 33.882V17.118ZM137.236 25.5L154 17.118V33.882L137.236 25.5ZM116.382 44.5L108 61.2639L99.618 44.5H116.382ZM108 63.7361L116.382 80.5H99.618L108 63.7361Z" />
      <path d="M90.5 40.5V85.5H125.5V40.5H160V10.5H8V40.5H90.5ZM9 39.5V11.5H159V39.5H124.5V84.5H91.5V39.5H9Z" />
    </g>
    <g id="Annotations">
      <circle id="annotation-connector-2-270" cx="4.54047" cy="12" r="0.5" />
      <circle id="annotation-connector-1-90" cx="44.2119" cy="12.002" r="0.5" />
    </g>
  </g>
</svg>