<svg width="48" height="48" viewBox="0 0 48 48" xmlns="http://www.w3.org/2000/svg" fill="#231f20">
  <g id="ND0024">
    <path id="Symbol" d="M24 44C35.0457 44 44 35.0457 44 24C44 12.9543 35.0457 4 24 4C12.9543 4 4 12.9543 4 24C4 35.0457 12.9543 44 24 44ZM42.9417 25.5H5.05834C5.01969 25.0051 5 24.5048 5 24C5 23.4952 5.01969 22.9949 5.05834 22.5H42.9417C42.9803 22.9949 43 23.4952 43 24C43 24.5048 42.9803 25.0051 42.9417 25.5ZM42.837 26.5C41.6131 35.8119 33.646 43 24 43C14.354 43 6.38692 35.8119 5.16301 26.5H42.837ZM24 5C33.646 5 41.6131 12.1881 42.837 21.5H5.16301C6.38692 12.1881 14.354 5 24 5Z" />
    <g id="Annotations">
      <circle id="annotation-connector-1-90" cx="43.5" cy="24" r="0.5" />
      <circle id="annotation-connector-2-180" cx="24" cy="43.5" r="0.5" />
      <circle id="annotation-connector-3-270" cx="4.5" cy="24" r="0.5" />
      <circle id="annotation-connector-4-0" cx="24" cy="4.5" r="0.5" />
    </g>
  </g>
</svg>