<svg width="24" height="48" viewBox="0 0 24 48" xmlns="http://www.w3.org/2000/svg" fill="#231f20">
  <g id="PA008A">
    <path id="Symbol" d="M12.5 9.50183L21.9745 9.50348C21.9914 9.33719 22 9.1693 22 9C22 5.13401 17.5228 2 12 2C6.47715 2 2 5.13401 2 9C2 9.1693 2.00859 9.33719 2.02547 9.50348H3.03227L3.03184 9.5001L11.5 9.50165L11.5 46H12.5L12.5 9.50183ZM18.4976 4.86948C19.9448 5.88254 20.7989 7.16367 20.9686 8.50338L3.03182 8.5001C3.20252 7.16157 4.05636 5.88171 5.50239 4.86948C7.12446 3.73404 9.41859 3 12 3C14.5814 3 16.8755 3.73404 18.4976 4.86948Z" />
    <g id="Annotations">
      <circle id="annotation-connector-2-270" cx="2.5" cy="12" r="0.5" />
    </g>
  </g>
</svg>