<svg width="96" height="168" viewBox="0 0 96 168" xmlns="http://www.w3.org/2000/svg" fill="#231f20">
  <g id="PD001A">
    <path id="Symbol" d="M38 8H36V5H60V8H58V16H70L78 28V40H58V48H60V51H58V59.0299H78V62.0299H92V68.0299H78V74.0299H92V80.0299H78V83.0299H58V91H60V94H58V128H60V131H58V139H78V142H92V148H78V152H58V160H60V163H36V160H38V152H18V148H4V142H18V139H38V131H36V128H38V94H36V91H38V83.0299H18V80.0299H4V74.0299H18V68.0299H4V62.0299H18V59.0299H38V51H36V48H38V40H18V28L26 16H38V8ZM37 6V7H59V6H37ZM77 151V140H19V151H77ZM39 152V160H57V152H39ZM37 161V162H59V161H37ZM78 147H91V143H78V147ZM18 143H5V147H18V143ZM39 139H57V131H39V139ZM59 130V129H37V130H59ZM39 128H57V94H39V128ZM59 93V92H37V93H59ZM58 82.0299H77V60.0299H19V82.0299H38V82H58V82.0299ZM39 83.0299V91H57V83.0299H39ZM78 79.0299H91V75.0299H78V79.0299ZM78 67.0299H91V63.0299H78V67.0299ZM18 75.0299H5V79.0299H18V75.0299ZM18 63.0299H5V67.0299H18V63.0299ZM39 40V48H57V40H39ZM77 39V28.0299H19V39H77ZM59 49H37V50H59V49ZM57 8H39V16H57V8ZM26.5352 17L19.8685 27H76.1315L69.4648 17H26.5352ZM57 51H39V59H57V51Z" />
    <g id="Annotations">
      <circle id="annotation-connector-2-270" cx="34.75" cy="44.5" r="0.5" />
      <circle id="annotation-connector-1-0" cx="69.25" cy="10" r="0.5" />
    </g>
  </g>
</svg>