<svg width="96" height="96" viewBox="0 0 96 96" xmlns="http://www.w3.org/2000/svg" fill="#231f20">
  <g id="PP005A">
    <path id="Symbol" d="M83 40.5C83 50.9622 78.4096 60.3522 71.1329 66.7659L83 90.5H13L24.8671 66.7659C17.5904 60.3522 13 50.9622 13 40.5C13 21.17 28.67 5.5 48 5.5C67.33 5.5 83 21.17 83 40.5ZM68.2378 67.8236C76.5882 61.6285 82 51.6962 82 40.5C82 33.2821 79.7508 26.5895 75.9151 21.0848L60.8643 36.1357C63.742 39.2544 65.5 43.4219 65.5 48C65.5 52.757 63.602 57.0707 60.5219 60.225C60.5412 60.2053 60.5605 60.1854 60.5798 60.1656L68.2378 67.8236ZM67.4151 68.4152L59.8643 60.8643C56.7456 63.7421 52.5781 65.5 48 65.5C43.4219 65.5 39.2544 63.742 36.1357 60.8643L28.5848 68.4151C34.0895 72.2508 40.7821 74.5 48 74.5C55.2179 74.5 61.9105 72.2508 67.4151 68.4152ZM60.1655 35.4202L75.3236 20.2622C69.1285 11.9118 59.1962 6.5 48 6.5C36.8038 6.5 26.8715 11.9118 20.6764 20.2622L35.8345 35.4203C38.9835 32.3743 43.2729 30.5 48 30.5C52.7271 30.5 57.0165 32.3743 60.1655 35.4202ZM35.1357 36.1357L20.0848 21.0849C16.2492 26.5895 14 33.2821 14 40.5C14 51.6962 19.4118 61.6285 27.7622 67.8236L35.4202 60.1655L35.4224 60.1677C32.3752 57.0185 30.5 52.7282 30.5 48C30.5 43.4219 32.258 39.2544 35.1357 36.1357ZM25.6501 67.4359L14.618 89.5H81.382L70.3499 67.4359C64.2874 72.4719 56.4973 75.5 48 75.5C40.5054 75.5 33.561 73.1444 27.8668 69.1332L27.8622 69.1378L27.8353 69.1109C27.0845 68.5808 26.3556 68.022 25.6501 67.4359ZM64.5 48C64.5 38.8873 57.1127 31.5 48 31.5C38.8873 31.5 31.5 38.8873 31.5 48C31.5 57.1127 38.8873 64.5 48 64.5C57.1127 64.5 64.5 57.1127 64.5 48Z" />
    <g id="Annotations">
      <circle id="annotation-connector-2-270" cx="13.5" cy="40.5" r="0.5" />
      <circle id="annotation-connector-1-90" cx="48" cy="6" r="0.5" />
    </g>
  </g>
</svg>