<svg width="96" height="96" viewBox="0 0 96 96" xmlns="http://www.w3.org/2000/svg" fill="#231f20">
  <g id="PP004A">
    <path id="Symbol" d="M20.5876 18.7364C15.8377 24.7111 13 32.2742 13 40.5C13 50.9622 17.5904 60.3522 24.8671 66.7659L13 90.5H83L71.1329 66.7659C78.4096 60.3522 83 50.9622 83 40.5C83 21.17 67.33 5.5 48 5.5C39.7783 5.5 32.2187 8.33486 26.2454 13.0804L22.5506 9.38566L16.8938 15.0425L20.5876 18.7364ZM48 74.5C29.2223 74.5 14 59.2777 14 40.5C14 32.5504 16.7282 25.2381 21.2995 19.4482L45.178 43.3268C46.7401 44.8889 49.2728 44.8889 50.8349 43.3268C52.397 41.7647 52.397 39.232 50.8349 37.6699L26.9573 13.7923C32.7457 9.22539 40.0546 6.5 48 6.5C66.7777 6.5 82 21.7223 82 40.5C82 59.2777 66.7777 74.5 48 74.5ZM44.0248 40.8818C44.0205 40.8375 44.017 40.7932 44.0143 40.7488L18.308 15.0425L22.5506 10.7999L48.2569 36.5062C47.1514 36.4372 46.0228 36.8252 45.178 37.6699C44.2994 38.5486 43.9149 39.7344 44.0248 40.8818ZM25.6501 67.4359C31.7126 72.4719 39.5027 75.5 48 75.5C56.4973 75.5 64.2874 72.4719 70.3499 67.4359L81.382 89.5H14.618L25.6501 67.4359ZM50.1278 38.377C51.2994 39.5486 51.2994 41.4481 50.1278 42.6197C48.9562 43.7913 47.0567 43.7913 45.8852 42.6197C44.7136 41.4481 44.7136 39.5486 45.8852 38.377C47.0567 37.2055 48.9562 37.2055 50.1278 38.377Z" />
    <g id="Annotations">
      <circle id="annotation-connector-2-270" cx="48" cy="40.5" r="0.5" />
      <circle id="annotation-connector-1-90" cx="48" cy="6" r="0.5" />
    </g>
  </g>
</svg>