<svg width="96" height="96" viewBox="0 0 96 96" xmlns="http://www.w3.org/2000/svg" fill="#231f20">
  <g id="PP003A">
    <path id="Symbol" d="M71.1329 66.7659C78.4096 60.3522 83 50.9622 83 40.5C83 21.17 67.33 5.5 48 5.5C28.67 5.5 13 21.17 13 40.5C13 50.9622 17.5904 60.3522 24.8671 66.7659L13 90.5H83L71.1329 66.7659ZM48 74.5C38.8873 74.5 31.5 67.1127 31.5 58C31.5 48.8873 38.8873 41.5 48 41.5C57.1127 41.5 64.5 48.8873 64.5 58C64.5 67.1127 57.1127 74.5 48 74.5ZM82 40.5C82 56.5026 70.9445 69.923 56.0546 73.5403C61.6665 70.6257 65.5 64.7605 65.5 58C65.5 49.3454 59.2175 42.1581 50.9642 40.75C59.2175 39.3419 65.5 32.1546 65.5 23.5C65.5 15.886 60.6374 9.40767 53.8483 7.00107C69.8392 9.77331 82 23.7165 82 40.5ZM45.0358 40.75C36.7825 42.1581 30.5 49.3454 30.5 58C30.5 64.7605 34.3335 70.6257 39.9454 73.5403C25.0555 69.923 14 56.5026 14 40.5C14 23.7165 26.1608 9.77331 42.1517 7.00107C35.3626 9.40767 30.5 15.886 30.5 23.5C30.5 32.1546 36.7825 39.3419 45.0358 40.75ZM48 75.5C56.4973 75.5 64.2874 72.4719 70.3499 67.4359L81.382 89.5H14.618L25.6501 67.4359C31.7126 72.4719 39.5027 75.5 48 75.5ZM48 40C38.8873 40 31.5 32.6127 31.5 23.5C31.5 14.3873 38.8873 7 48 7C57.1127 7 64.5 14.3873 64.5 23.5C64.5 32.6127 57.1127 40 48 40Z" />
    <g id="Annotations">
      <circle id="annotation-connector-2-270" cx="13.5" cy="40.5" r="0.5" />
      <circle id="annotation-connector-1-90" cx="48" cy="6" r="0.5" />
    </g>
  </g>
</svg>