<svg width="96" height="96" viewBox="0 0 96 96" xmlns="http://www.w3.org/2000/svg" fill="#231f20">
  <g id="PP002A">
    <path id="Symbol" d="M24.8671 66.7659C24.5761 66.5094 24.2894 66.2482 24.0072 65.9824C17.2307 59.5996 13 50.5439 13 40.5C13 30.4562 17.2307 21.4004 24.0072 15.0176C24.0072 15.0176 24.0072 15.0176 24.0072 15.0176C24.3046 14.7375 24.607 14.4624 24.9141 14.1927C24.9141 14.1927 24.9141 14.1927 24.9141 14.1927C31.0759 8.78114 39.1548 5.5 48 5.5C67.33 5.5 83 21.17 83 40.5C83 50.9622 78.4096 60.3522 71.1329 66.7659L83 90.5H13L24.8671 66.7659ZM48 74.5C66.7777 74.5 82 59.2777 82 40.5C82 21.7223 66.7777 6.5 48 6.5C39.6542 6.5 32.0108 9.50696 26.094 14.4966C37.4435 17.6966 45.7619 28.1268 45.7619 40.5C45.7619 52.8731 37.4434 63.3034 26.0939 66.5034C32.0108 71.493 39.6542 74.5 48 74.5ZM25.1873 15.2889C18.3163 21.5101 14 30.501 14 40.5C14 50.499 18.3163 59.4899 25.1873 65.7111C36.4398 62.8455 44.7619 52.6446 44.7619 40.5C44.7619 28.3554 36.4399 18.1545 25.1873 15.2889ZM48 75.5C39.5027 75.5 31.7126 72.4719 25.6501 67.4359L14.618 89.5H81.382L70.3499 67.4359C64.2874 72.4719 56.4973 75.5 48 75.5Z" />
    <g id="Annotations">
      <circle id="annotation-connector-2-270" cx="13.5" cy="40.5" r="0.5" />
      <circle id="annotation-connector-1-90" cx="48" cy="6" r="0.5" />
    </g>
  </g>
</svg>