<svg width="96" height="96" viewBox="0 0 96 96" xmlns="http://www.w3.org/2000/svg" fill="#231f20">
  <g id="PP006A">
    <path id="Symbol" d="M83 40.5C83 21.17 67.33 5.5 48 5.5C28.67 5.5 13 21.17 13 40.5C13 50.9622 17.5904 60.3522 24.8671 66.7659L13 90.5H83L71.1329 66.7659C78.4096 60.3522 83 50.9622 83 40.5ZM56.0546 73.5403C61.6665 70.6257 65.5 64.7605 65.5 58C65.5 48.335 57.665 40.5 48 40.5C38.335 40.5 30.5 48.335 30.5 58C30.5 64.7605 34.3335 70.6257 39.9454 73.5403C25.0555 69.923 14 56.5026 14 40.5C14 21.7223 29.2223 6.5 48 6.5C66.7777 6.5 82 21.7223 82 40.5C82 56.5026 70.9445 69.923 56.0546 73.5403ZM48 74.5C38.8873 74.5 31.5 67.1127 31.5 58C31.5 48.8873 38.8873 41.5 48 41.5C57.1127 41.5 64.5 48.8873 64.5 58C64.5 67.1127 57.1127 74.5 48 74.5ZM48 75.5C56.4973 75.5 64.2874 72.4719 70.3499 67.4359L81.382 89.5H14.618L25.6501 67.4359C31.7126 72.4719 39.5027 75.5 48 75.5Z" />
    <g id="Annotations">
      <circle id="annotation-connector-2-270" cx="13.5" cy="40.5" r="0.5" />
      <circle id="annotation-connector-1-90" cx="48" cy="6" r="0.5" />
    </g>
  </g>
</svg>