<svg width="96" height="216" viewBox="0 0 96 216" xmlns="http://www.w3.org/2000/svg" fill="#231f20">
  <g id="PT002A">
    <path id="Symbol" d="M87.9782 37C87.9927 37.332 88 37.6654 88 38V178C88 178.335 87.9927 178.668 87.9782 179C87.6338 186.887 83.2306 194.003 76.2843 199.213C69.0457 204.642 59.0457 208 48 208C36.9543 208 26.9543 204.642 19.7157 199.213C12.7694 194.003 8.36621 186.887 8.0218 179C8.00731 178.668 8 178.335 8 178L8 38C8 37.6654 8.00731 37.332 8.02181 37C8.36621 29.1134 12.7694 21.9966 19.7157 16.7868C26.9543 11.3579 36.9543 8 48 8C59.0457 8 69.0457 11.3579 76.2843 16.7868C83.2306 21.9966 87.6338 29.1134 87.9782 37ZM9 38H87C87 30.1011 82.7334 22.8737 75.6843 17.5868C68.6348 12.2997 58.8503 9 48 9C37.1498 9 27.3652 12.2997 20.3157 17.5868C13.2666 22.8737 9 30.1011 9 38ZM9 178C9 185.899 13.2666 193.126 20.3157 198.413C27.3652 203.7 37.1498 207 48 207C58.8503 207 68.6348 203.7 75.6843 198.413C82.7334 193.126 87 185.899 87 178H9ZM9 177H87V39H9V177Z" />
    <g id="Annotations">
      <circle id="annotation-connector-1-90" cx="87.5" cy="108" r="0.5" />
      <circle id="annotation-connector-2-180" cx="48" cy="207.5" r="0.5" />
      <circle id="annotation-connector-3-270" cx="8.5" cy="108" r="0.5" />
      <circle id="annotation-connector-4-0" cx="48" cy="8.5" r="0.5" />
    </g>
  </g>
</svg>