<svg width="96" height="144" viewBox="0 0 96 144" xmlns="http://www.w3.org/2000/svg" fill="#231f20">
  <g id="PT005A">
    <path id="Symbol" d="M88.0001 34.4977L88.0001 33.4977L87.9783 33.4977C87.6339 25.6111 83.2307 18.4943 76.2843 13.2845C69.0458 7.85555 59.0458 4.49768 48.0001 4.49768C36.9543 4.49768 26.9544 7.85555 19.7158 13.2845C12.7694 18.4943 8.36627 25.6111 8.02186 33.4977C8.00737 33.8297 8.00006 34.163 8.00006 34.4977L8.00006 110.498L48 139.502L88.0001 110.498V109.498L87.9986 109.498V34.4977H88.0001ZM86.3009 110.498L48.0001 138.27L9.69917 110.498L86.3009 110.498ZM86.9986 109.498H9.00006L9.00006 34.4977C9.00006 34.4131 9.00055 34.3286 9.00153 34.2442V34.4977H86.9986V109.498ZM75.6843 14.0845C82.4349 19.1474 86.6336 25.99 86.9772 33.4977L9.02291 33.4977C9.36649 25.99 13.5652 19.1474 20.3158 14.0845C27.3652 8.79738 37.1498 5.49768 48.0001 5.49768C58.8503 5.49768 68.6349 8.79738 75.6843 14.0845Z" />
    <g id="Annotations">
      <circle id="annotation-connector-2-270" cx="30.75" cy="40.5" r="0.5" />
      <circle id="annotation-connector-1-0" cx="65.25" cy="6" r="0.5" />
    </g>
  </g>
</svg>