<svg width="96" height="216" viewBox="0 0 96 216" xmlns="http://www.w3.org/2000/svg" fill="#231f20">
  <g id="PT002A_Option1">
    <g id="Symbol">
      <path d="M18 68H14V67.5H18V68Z" />
      <path d="M26 68H22V67.5H26V68Z" />
      <path d="M34 68H30V67.5H34V68Z" />
      <path d="M42 68H38V67.5H42V68Z" />
      <path d="M46 68V67.5H50V68H46Z" />
      <path d="M58 68H54V67.5H58V68Z" />
      <path d="M66 68H62V67.5H66V68Z" />
      <path d="M74 68H70V67.5H74V68Z" />
      <path d="M82 68H78V67.5H82V68Z" />
      <path d="M14 148H18V147.5H14V148Z" />
      <path d="M22 148H26V147.5H22V148Z" />
      <path d="M30 148H34V147.5H30V148Z" />
      <path d="M38 148H42V147.5H38V148Z" />
      <path d="M46 147.5V148H50V147.5H46Z" />
      <path d="M54 148H58V147.5H54V148Z" />
      <path d="M62 148H66V147.5H62V148Z" />
      <path d="M70 148H74V147.5H70V148Z" />
      <path d="M78 148H82V147.5H78V148Z" />
      <path d="M87.9782 37C87.6338 29.1134 83.2306 21.9966 76.2843 16.7868C69.0457 11.3579 59.0457 8 48 8C36.9543 8 26.9543 11.3579 19.7157 16.7868C12.7694 21.9966 8.36621 29.1134 8.02181 37C8.00731 37.332 8 37.6654 8 38L8 178C8 178.335 8.00731 178.668 8.0218 179C8.36621 186.887 12.7694 194.003 19.7157 199.213C26.9543 204.642 36.9543 208 48 208C59.0457 208 69.0457 204.642 76.2843 199.213C83.2306 194.003 87.6338 186.887 87.9782 179C87.9927 178.668 88 178.335 88 178V38C88 37.6654 87.9927 37.332 87.9782 37ZM9 148H10V147.5H9V68H10V67.5H9V39H87V67.5H86V68H87V147.5H86V148H87V177H9V148ZM9 38C9 30.1011 13.2666 22.8737 20.3157 17.5868C27.3652 12.2997 37.1498 9 48 9C58.8503 9 68.6348 12.2997 75.6843 17.5868C82.7334 22.8737 87 30.1011 87 38H9ZM9 178H87C87 185.899 82.7334 193.126 75.6843 198.413C68.6348 203.7 58.8503 207 48 207C37.1498 207 27.3652 203.7 20.3157 198.413C13.2666 193.126 9 185.899 9 178Z" />
    </g>
    <g id="Annotations">
      <circle id="annotation-connector-1-90" cx="87.5" cy="108" r="0.5" />
      <circle id="annotation-connector-2-180" cx="48" cy="207.5" r="0.5" />
      <circle id="annotation-connector-3-270" cx="8.5" cy="108" r="0.5" />
      <circle id="annotation-connector-4-0" cx="48" cy="8.5" r="0.5" />
    </g>
  </g>
</svg>