<svg width="48" height="24" viewBox="0 0 48 24" xmlns="http://www.w3.org/2000/svg" fill="#231f20">
  <g id="PV007B">
    <path id="Symbol" d="M21.5465 10.2732L5 2V22L21.5465 13.7268C22.0895 14.4969 22.986 15 24 15C25.014 15 25.9105 14.4969 26.4535 13.7268L43 22V2L26.4535 10.2732C25.9105 9.50307 25.014 9 24 9C22.986 9 22.0895 9.50307 21.5465 10.2732ZM21.1147 11.1754C21.04 11.4374 21 11.714 21 12C21 12.286 21.04 12.5626 21.1147 12.8246L6 20.382V3.61803L21.1147 11.1754ZM26.8853 12.8246C26.96 12.5626 27 12.286 27 12C27 11.714 26.96 11.4374 26.8853 11.1754L42 3.61803V20.382L26.8853 12.8246Z" />
    <g id="Annotations">
      <circle id="annotation-connector-2-270" cx="5.5" cy="12" r="0.5" />
      <circle id="annotation-connector-1-90" cx="42.5" cy="12.002" r="0.5" />
    </g>
  </g>
</svg>