<svg width="48" height="48" viewBox="0 0 48 48" xmlns="http://www.w3.org/2000/svg" fill="#231f20">
  <g id="PV005A_Umbrella_Option1">
    <g id="Symbol">
      <path d="M32.9677 13.7517C32.9677 13.7517 32.9677 13.7518 32.9677 13.7517L15.0318 13.7484C15.032 13.7495 15.0321 13.7506 15.0323 13.7517H14.0255C14.0086 13.5855 14 13.4176 14 13.2483C14 9.38227 18.4772 6.24827 24 6.24827C29.5228 6.24827 34 9.38227 34 13.2483C34 13.4176 33.9914 13.5855 33.9745 13.7517H32.9677ZM32.9686 12.7517C32.7989 11.4119 31.9448 10.1308 30.4976 9.11775C28.8755 7.98231 26.5814 7.24827 24 7.24827C21.4186 7.24827 19.1245 7.98231 17.5024 9.11775C16.0564 10.13 15.2025 11.4098 15.0318 12.7484L32.9686 12.7517Z" />
      <path d="M24.5 31.0017L43 21.7517V41.7517L24 32.2517L5 41.7517V21.7517L23.5 31.0017V13.7517H24.5V31.0017Z" />
    </g>
    <g id="Annotations">
      <circle id="annotation-connector-2-270" cx="5.5" cy="31.75" r="0.5" />
      <circle id="annotation-connector-1-90" cx="42.5" cy="31.752" r="0.5" />
    </g>
  </g>
</svg>