<svg width="48" height="48" viewBox="0 0 48 48" xmlns="http://www.w3.org/2000/svg" fill="#231f20">
  <g id="PV005A_Umbrella">
    <g id="Symbol">
      <path d="M32.9677 13.7517C32.9677 13.7517 32.9677 13.7518 32.9677 13.7517L15.0318 13.7484C15.032 13.7495 15.0321 13.7506 15.0323 13.7517H14.0255C14.0086 13.5855 14 13.4176 14 13.2483C14 9.38227 18.4772 6.24826 24 6.24826C29.5228 6.24826 34 9.38227 34 13.2483C34 13.4176 33.9914 13.5855 33.9745 13.7517H32.9677ZM32.9686 12.7516C32.7989 11.4119 31.9448 10.1308 30.4976 9.11775C28.8755 7.9823 26.5814 7.24826 24 7.24826C21.4186 7.24826 19.1245 7.9823 17.5024 9.11775C16.0564 10.13 15.2025 11.4098 15.0318 12.7484L32.9686 12.7516Z" />
      <path d="M24.5 31.0017L43 21.7517V41.7517L24 32.2517L5 41.7517V21.7517L23.5 31.0017V13.7517H24.5V31.0017ZM25.2361 31.7517L42 40.1337V23.3698L25.2361 31.7517ZM22.7639 31.7517L6 23.3698V40.1337L22.7639 31.7517Z" />
    </g>
    <g id="Annotations">
      <circle id="annotation-connector-2-270" cx="5.5" cy="31.75" r="0.5" />
      <circle id="annotation-connector-1-90" cx="42.5" cy="31.752" r="0.5" />
    </g>
  </g>
</svg>