<svg width="48" height="24" viewBox="0 0 48 24" xmlns="http://www.w3.org/2000/svg" fill="#231f20">
  <g id="PV019B_Option1">
    <g id="Symbol">
      <path d="M14 2H15L15 7.63587C16.6207 4.2997 20.0418 2 24 2C27.9582 2 31.3793 4.2997 33 7.63587V2H34V22H33V16.3641C31.3793 19.7003 27.9582 22 24 22C20.0418 22 16.6207 19.7003 15 16.3641L15 22H14L14 2Z" />
      <path d="M9 18V6H10L10 18H9Z" />
      <path d="M39 6H38V18H39V6Z" />
    </g>
    <g id="Annotations">
      <circle id="annotation-connector-1-90" cx="38.5" cy="12" r="0.5" />
      <circle id="annotation-connector-2-270" cx="9.5" cy="12" r="0.5" />
    </g>
  </g>
</svg>