<svg width="48" height="24" viewBox="0 0 48 24" xmlns="http://www.w3.org/2000/svg" fill="#231f20">
  <g id="PV018A">
    <path id="Symbol" d="M4 2V22H44V21.1005L44.0045 21.0911L44 21.0889V2H4ZM43 3V20.6068L26.8817 12.837C26.9587 12.5713 27 12.2905 27 12C27 10.3431 25.6569 9 24 9C22.9887 9 22.0942 9.50045 21.5507 10.2672L6.47509 3H43ZM26.4462 13.7372L41.5127 21H5V3.39906L21.1168 11.1682C21.0408 11.4323 21 11.7114 21 12C21 13.6569 22.3431 15 24 15C25.0094 15 25.9024 14.5015 26.4462 13.7372Z" />
    <g id="Annotations">
      <circle id="annotation-connector-1-90" cx="43.5" cy="12" r="0.5" />
      <circle id="annotation-connector-2-270" cx="4.5" cy="12" r="0.5" />
    </g>
  </g>
</svg>