<svg width="48" height="48" viewBox="0 0 48 48" xmlns="http://www.w3.org/2000/svg" fill="#231f20">
  <g id="PV022A">
    <g id="Symbol">
      <path d="M0.941223 24L22.1544 45.2132L22.8615 44.5061L2.35543 24L22.8615 3.49391L22.1544 2.7868L0.941223 24Z" />
      <path d="M36.1457 23.5C35.8825 15.9996 29.7191 10 22.1545 10C14.4225 10 8.1545 16.268 8.1545 24C8.1545 31.732 14.4225 38 22.1545 38C29.7191 38 35.8825 32.0004 36.1457 24.5H45.9444V23.5H36.1457ZM35.1544 23.9597V24.0403C35.1327 31.2015 29.3208 37 22.1545 37C14.9748 37 9.1545 31.1797 9.1545 24C9.1545 16.8203 14.9748 11 22.1545 11C29.3208 11 35.1327 16.7986 35.1544 23.9597Z" />
    </g>
    <g id="Annotations">
      <circle id="annotation-connector-2-270" cx="1.78357" cy="24" r="0.5" />
      <circle id="annotation-connector-1-90" cx="45.4444" cy="24" r="0.5" />
    </g>
  </g>
</svg>